HIERARCHY
ROOT Hips
{
	OFFSET 0.00000 0.00000 0.00000
	CHANNELS 6 Xposition Yposition Zposition Zrotation Yrotation Xrotation 
	JOINT LHipJoint
	{
		OFFSET 0 0 0
		CHANNELS 3 Zrotation Yrotation Xrotation
		JOINT LeftUpLeg
		{
			OFFSET 1.48416 -1.82041 0.59464
			CHANNELS 3 Zrotation Yrotation Xrotation
			JOINT LeftLeg
			{
				OFFSET 2.43280 -6.68407 0.00000
				CHANNELS 3 Zrotation Yrotation Xrotation
				JOINT LeftFoot
				{
					OFFSET 2.68325 -7.37216 0.00000
					CHANNELS 3 Zrotation Yrotation Xrotation
					JOINT LeftToeBase
					{
						OFFSET 0.15365 -0.42214 1.91990
						CHANNELS 3 Zrotation Yrotation Xrotation
						End Site
						{
							OFFSET 0.00000 -0.00000 0.99320
						}
					}
				}
			}
		}
	}
	JOINT RHipJoint
	{
		OFFSET 0 0 0
		CHANNELS 3 Zrotation Yrotation Xrotation
		JOINT RightUpLeg
		{
			OFFSET -1.70852 -1.82040 0.59464
			CHANNELS 3 Zrotation Yrotation Xrotation
			JOINT RightLeg
			{
				OFFSET -2.50396 -6.87957 0.00000
				CHANNELS 3 Zrotation Yrotation Xrotation
				JOINT RightFoot
				{
					OFFSET -2.67204 -7.34139 0.00000
					CHANNELS 3 Zrotation Yrotation Xrotation
					JOINT RightToeBase
					{
						OFFSET -0.17346 -0.47657 2.02009
						CHANNELS 3 Zrotation Yrotation Xrotation
						End Site
						{
							OFFSET -0.00000 -0.00000 1.04609
						}
					}
				}
			}
		}
	}
	JOINT LowerBack
	{
		OFFSET 0 0 0
		CHANNELS 3 Zrotation Yrotation Xrotation
		JOINT Spine
		{
			OFFSET -0.01022 1.99636 -0.30653
			CHANNELS 3 Zrotation Yrotation Xrotation
			JOINT Spine1
			{
				OFFSET -0.01683 2.01212 0.04808
				CHANNELS 3 Zrotation Yrotation Xrotation
				JOINT Neck
				{
					OFFSET 0 0 0
					CHANNELS 3 Zrotation Yrotation Xrotation
					JOINT Neck1
					{
						OFFSET -0.03080 1.91178 0.03911
						CHANNELS 3 Zrotation Yrotation Xrotation
						JOINT Head
						{
							OFFSET 0.10605 1.89839 -0.23433
							CHANNELS 3 Zrotation Yrotation Xrotation
							End Site
							{
								OFFSET 0.03474 1.92469 -0.08609
							}
						}
					}
				}
				JOINT LeftShoulder
				{
					OFFSET 0 0 0
					CHANNELS 3 Zrotation Yrotation Xrotation
					JOINT LeftArm
					{
						OFFSET 3.78977 1.27972 -0.24661
						CHANNELS 3 Zrotation Yrotation Xrotation
						JOINT LeftForeArm
						{
							OFFSET 5.64147 -0.00000 -0.00000
							CHANNELS 3 Zrotation Yrotation Xrotation
							JOINT LeftHand
							{
								OFFSET 2.86444 -0.00000 -0.00000
								CHANNELS 3 Zrotation Yrotation Xrotation
								JOINT LeftFingerBase
								{
									OFFSET 0 0 0
									CHANNELS 3 Zrotation Yrotation Xrotation
									JOINT LeftHandIndex1
									{
										OFFSET 0.72212 -0.00000 -0.00000
										CHANNELS 3 Zrotation Yrotation Xrotation
										End Site
										{
											OFFSET 0.58219 -0.00000 -0.00000
										}
									}
								}
								JOINT LThumb
								{
									OFFSET 0 0 0
									CHANNELS 3 Zrotation Yrotation Xrotation
									End Site
									{
										OFFSET 0.59108 -0.00000 0.59108
									}
								}
							}
						}
					}
				}
				JOINT RightShoulder
				{
					OFFSET 0 0 0
					CHANNELS 3 Zrotation Yrotation Xrotation
					JOINT RightArm
					{
						OFFSET -3.41176 1.18605 -0.57927
						CHANNELS 3 Zrotation Yrotation Xrotation
						JOINT RightForeArm
						{
							OFFSET -5.44729 -0.00000 -0.00000
							CHANNELS 3 Zrotation Yrotation Xrotation
							JOINT RightHand
							{
								OFFSET -3.08821 -0.00000 -0.00000
								CHANNELS 3 Zrotation Yrotation Xrotation
								JOINT RightFingerBase
								{
									OFFSET 0 0 0
									CHANNELS 3 Zrotation Yrotation Xrotation
									JOINT RightHandIndex1
									{
										OFFSET -0.82105 -0.00000 -0.00000
										CHANNELS 3 Zrotation Yrotation Xrotation
										End Site
										{
											OFFSET -0.66195 -0.00000 -0.00000
										}
									}
								}
								JOINT RThumb
								{
									OFFSET 0 0 0
									CHANNELS 3 Zrotation Yrotation Xrotation
									End Site
									{
										OFFSET -0.67206 -0.00000 0.67206
									}
								}
							}
						}
					}
				}
			}
		}
	}
}
MOTION
Frames: 16
Frame Time: 0.125
0.00 0.00 0.00 0 0 0 0 0 0 -21 0 0 0 0 0 0 0 0 0 0 0 0 0 0 21 0 0 0 0 0 0 0 0 0 0 0 0 0 0 0 0 0 0 0 0 0 0 -16 0 0 21 0 0 11 0 0 0 -8 0 0 0 0 0 0 0 0 0 0 0 0 0 0 0 0 0 0 0 0 8 0 0 0 0 0 0 0 0 0 0 0 0 0 0 0 0 0
0.00 0.00 0.00 -1.2534 35.0646 0.9888 0.0000 0.0000 0.0000 -19.1150 10.0640 8.5633 1.6624 8.1243 23.0922 0.0486 0.2216 -4.2483 0.7690 -5.5996 -15.6269 0.0000 0.0000 0.0000 25.3808 -0.5439 -18.4175 -1.3990 -7.4823 21.1524 -0.3399 5.8382 -10.5378 -0.0813 1.8391 -5.0611 4.1020 0.3136 -1.5841 -0.5556 0.3105 2.2601 -2.8597 0.2640 3.2440 -4.7962 -6.2676 -2.3807 6.3999 -8.8240 11.9325 2.3124 -4.2135 4.4564 -0.0000 -0.0000 0.0000 -88.3001 -1.6036 31.1304 10.9693 -18.2411 -1.7663 -0.0000 0.0000 -26.8571 12.4846 9.3205 2.0537 -7.1250 0.0000 -0.0000 -12.5310 39.2225 1.8173 -0.0000 -0.0000 0.0000 90.2375 -1.9437 16.8789 -16.6847 26.4402 -3.9459 0.0000 0.0000 14.6883 -7.4870 8.0630 -1.0560 7.1250 -0.0000 -0.0000 13.9769 -21.9235 7.9824
0.00 0.00 0.00 -1.2270 36.4588 0.8145 0.0000 0.0000 0.0000 -17.1511 8.4988 0.7007 4.6745 13.0076 39.3969 0.0076 1.4631 1.7306 0.5851 -4.8977 -13.6169 0.0000 0.0000 0.0000 26.3814 -2.3847 -14.5042 -1.1329 -6.7599 19.0061 -0.3830 5.6813 -11.1148 -0.0113 0.6872 -1.8886 4.5114 0.2197 -1.6354 -0.3900 0.1668 2.1723 -2.9250 0.1969 3.1726 -4.4242 -6.0929 -2.2042 6.1368 -8.5984 12.3467 2.1881 -4.0938 4.5127 -0.0000 0.0000 0.0000 -87.8584 -2.3676 29.0412 10.4153 -17.3866 -1.5968 -0.0000 0.0000 -26.4491 11.8717 10.1199 2.1154 -7.1250 0.0000 -0.0000 -13.2290 39.9686 1.6745 -0.0000 0.0000 0.0000 90.0970 -1.9816 17.0856 -16.8213 26.6216 -4.0069 0.0000 0.0000 15.0928 -6.9242 8.8720 -1.0730 7.1250 -0.0000 -0.0000 14.3078 -21.1471 8.4447
0.00 0.00 0.00 -0.6261 37.5711 -0.1190 0.0000 0.0000 0.0000 -16.1556 1.9411 -8.8483 7.2435 15.5336 49.7894 0.4110 -3.5888 -11.4121 0.7026 -5.3577 -14.9317 0.0000 0.0000 0.0000 27.1157 -4.4246 -9.5562 -1.2752 -7.1568 20.1808 -0.6789 7.1238 -14.7737 -0.0197 -0.9058 2.4897 4.6303 0.5365 -1.0351 -0.5755 0.6155 2.6186 -3.1662 0.4397 3.3387 -3.8113 -4.9252 -2.6856 5.6011 -7.0064 13.1231 1.9972 -3.2882 4.7018 0.0000 -0.0000 0.0000 -86.8243 -1.8632 28.8332 10.3823 -17.3353 -1.5870 -0.0000 0.0000 -26.5097 13.3874 8.7756 2.0795 -7.1250 0.0000 -0.0000 -11.6537 38.7451 1.8249 0.0000 -0.0000 0.0000 90.2914 -1.9314 17.9719 -17.0153 26.8779 -4.0942 0.0000 0.0000 14.3053 -7.0220 8.9158 -1.0936 7.1250 -0.0000 -0.0000 14.2352 -21.1019 8.4141
0.00 0.00 0.00 -0.3123 32.6170 2.2324 0.0000 0.0000 0.0000 -24.5264 0.5169 -21.0656 0.2091 2.9443 8.1236 -0.0940 -7.6483 -2.9516 0.2870 -3.4455 -9.5217 0.0000 0.0000 0.0000 26.7267 -5.2045 8.8080 -0.7830 -5.6493 15.7703 -0.7791 8.8757 -16.0018 -0.0151 0.7940 -2.1822 3.4303 1.1420 -2.3175 -1.3066 1.4364 2.0565 -3.1953 0.8210 3.5400 -3.1492 -3.8242 -2.2191 4.7278 -5.4061 11.2823 1.9117 -2.5684 4.3751 -0.0000 0.0000 0.0000 -86.6172 -1.0560 29.8192 10.6962 -17.8211 -1.6818 -0.0000 0.0000 -26.6659 12.6622 9.4953 2.1225 -7.1250 0.0000 -0.0000 -12.4172 39.4106 1.7417 -0.0000 0.0000 0.0000 91.1819 -3.6168 16.4620 -15.5873 24.9579 -3.4700 0.0000 0.0000 15.8214 -7.2696 8.7803 -1.1155 7.1250 -0.0000 -0.0000 14.0715 -21.2275 8.2699
0.00 0.00 0.00 0.4166 35.7220 1.2059 0.0000 0.0000 0.0000 -18.3485 10.1634 9.8631 1.6922 8.1930 23.3020 -0.2750 -11.6540 11.8387 0.0147 -0.7823 -2.1501 0.0000 0.0000 0.0000 24.0307 1.9260 -18.9696 -1.5594 -7.8808 22.3526 -0.5166 4.0755 -12.7994 -0.0557 1.5231 -4.1893 1.8464 -0.2495 -2.1816 -1.2934 -0.3534 2.9319 -2.3916 -0.0913 4.2277 -2.9941 -3.6678 -4.4301 3.6876 -5.1867 16.9065 1.3236 -2.4000 6.0133 0.0000 -0.0000 0.0000 -87.2624 -3.1663 29.9228 9.5023 -15.9572 -1.3348 -0.0000 0.0000 -26.2207 12.9484 9.2305 2.1122 -7.1250 0.0000 -0.0000 -12.1181 39.1682 1.7718 0.0000 -0.0000 0.0000 91.5330 -2.9324 15.1020 -17.1503 27.0555 -4.1555 0.0000 0.0000 14.9694 -7.2706 8.9567 -1.1379 7.1250 -0.0000 -0.0000 14.0565 -21.0551 8.3173
0.00 0.00 0.00 2.4398 36.7811 2.0101 0.0000 0.0000 0.0000 -18.5850 8.0973 2.3857 4.7053 13.0440 39.5333 0.5424 -6.3208 17.6444 0.0057 -0.4873 -1.3390 0.0000 0.0000 0.0000 22.9638 0.7964 -15.2159 -1.6204 -8.0261 22.7934 -0.5782 4.1397 -13.5532 -0.0080 -0.5759 1.5826 0.8279 -0.2654 -2.1814 -1.6417 -0.3182 2.8147 -2.1761 -0.1013 4.1096 -2.9407 -3.7352 -4.3430 3.4082 -5.2553 17.9402 1.2197 -2.4348 6.3191 0.0000 0.0000 0.0000 -87.1469 -3.3802 28.1387 9.6791 -16.2361 -1.3839 -0.0000 0.0000 -25.7151 12.1180 9.9945 2.1341 -7.1250 0.0000 -0.0000 -12.9903 39.8643 1.6771 0.0000 0.0000 0.0000 90.8554 -2.3194 15.7791 -16.3825 26.0366 -3.8123 0.0000 0.0000 14.8648 -7.8454 9.0229 -1.2379 7.1250 -0.0000 -0.0000 13.6456 -20.9738 8.0855
0.00 0.00 0.00 -1.7854 30.2824 0.7004 0.0000 0.0000 0.0000 -26.7468 9.7450 -19.2273 0.8455 5.8649 16.3931 0.2932 0.1077 -10.2675 0.2146 2.9821 8.2290 0.0000 0.0000 0.0000 24.6519 -5.0095 4.8659 -3.8979 -12.0232 35.8143 0.0019 1.4560 1.8481 -0.0953 -1.9913 5.4816 0.8328 0.6009 -4.0004 -2.0138 0.8487 2.4314 -2.4844 0.4870 4.8029 -1.0308 0.6283 -4.6922 -0.4703 1.1521 17.1250 0.1019 0.5004 5.9442 -0.0000 0.0000 0.0000 -85.3332 -3.8121 27.0419 9.9718 -16.6955 -1.4668 -0.0000 0.0000 -24.7522 12.1413 9.9215 2.1228 -7.1250 0.0000 -0.0000 -12.9541 39.7936 1.6953 -0.0000 0.0000 0.0000 90.7031 -3.2829 17.3644 -15.5482 24.9042 -3.4535 0.0000 0.0000 15.7795 -7.2471 8.8391 -1.1194 7.1250 -0.0000 -0.0000 14.0827 -21.1706 8.2956
0.00 0.00 0.00 -1.9608 37.4116 -0.6651 0.0000 0.0000 0.0000 -26.1765 9.3096 -13.9266 0.9984 6.3587 17.8289 0.3871 -7.5598 -11.5140 0.1116 2.1540 5.9314 0.0000 0.0000 0.0000 21.3992 0.6215 -3.4483 -6.8279 -15.1852 48.2204 -0.0181 11.9989 -8.6671 -0.3877 3.9986 -11.0727 -0.4857 -0.1026 -2.9518 -2.3225 -0.0039 2.7205 -2.1278 0.0289 4.4639 -0.1461 1.5852 -4.3097 -1.4077 2.5049 16.1931 -0.2600 1.1579 5.6059 0.0000 0.0000 0.0000 -83.8762 -7.5131 32.4137 10.7507 -17.9052 -1.6985 -0.0000 0.0000 -27.9965 12.7659 9.9099 2.2330 -7.1250 0.0000 -0.0000 -12.4181 39.8327 1.6103 0.0000 0.0000 0.0000 90.8831 -2.5252 19.2113 -16.4397 26.1132 -3.8374 0.0000 0.0000 14.7008 -7.0734 8.9991 -1.1119 7.1250 -0.0000 -0.0000 14.1922 -21.0192 8.4146
0.00 0.00 0.00 -2.9173 41.3710 -1.7131 0.0000 0.0000 0.0000 -25.2030 7.2691 -12.8056 1.2764 7.1602 20.1908 0.3110 -9.7328 -11.2481 0.4232 4.1753 11.5703 0.0000 0.0000 0.0000 21.1876 6.7300 -4.5009 -5.6158 -14.0454 43.4194 -1.9548 5.5821 -25.2592 -0.8679 5.9400 -16.6104 -0.3558 -0.2702 -2.8657 -2.0837 -0.2402 2.9379 -1.9708 -0.0866 4.6333 -0.2805 1.8826 -4.4266 -2.0744 3.0306 15.9418 -0.4134 1.3656 5.5604 0.0000 -0.0000 0.0000 -84.0371 -8.6286 34.3586 12.3206 -20.2837 -2.2122 -0.0000 0.0000 -29.8162 14.2544 10.0641 2.5420 -7.1250 0.0000 -0.0000 -11.1745 40.1095 1.3668 0.0000 -0.0000 0.0000 90.6000 -2.6327 19.2150 -16.1784 25.7619 -3.7231 0.0000 0.0000 15.3217 -6.8759 9.0743 -1.0895 7.1250 -0.0000 -0.0000 14.3252 -20.9510 8.5214
0.00 0.00 0.00 -26.6395 81.6466 -23.8802 0.0000 0.0000 0.0000 -19.3802 -3.9528 -8.9860 1.6156 8.0147 22.7587 -3.0892 -29.3138 10.5364 1.7354 8.2916 23.6034 0.0000 0.0000 0.0000 15.8340 21.2055 -12.7379 -2.0294 -8.9271 25.5675 2.3261 27.6334 -0.1234 -0.2957 3.4964 -9.6641 -0.1298 -0.1988 -1.1550 -2.1527 -0.1487 3.0754 -2.1514 -0.0250 3.8071 0.0827 2.1951 -3.5418 -3.5437 3.7162 14.7993 -0.9014 1.6983 5.0962 -0.0000 0.0000 0.0000 -84.1692 -12.1760 38.4514 11.3743 -18.8597 -1.8951 -0.0000 0.0000 -29.5656 13.0064 9.9445 2.2843 -7.1250 0.0000 -0.0000 -12.2199 39.8868 1.5672 -0.0000 0.0000 0.0000 90.5988 -3.5392 18.4487 -15.4680 24.7940 -3.4198 0.0000 0.0000 15.6011 -8.4758 9.3949 -1.3935 7.1250 -0.0000 -0.0000 13.1739 -20.5887 7.9084
0.00 0.00 0.00 -161.0370 81.9855 -157.6030 0.0000 0.0000 0.0000 -18.0611 -7.4108 -9.2657 1.6592 8.1170 23.0700 -2.5547 -29.8590 25.9552 3.6683 11.7055 34.6978 0.0000 0.0000 0.0000 15.6117 22.0423 -11.1380 -2.1705 -9.2125 26.4622 2.4716 28.6549 -0.7665 -0.4351 4.2330 -11.7331 -0.4580 0.1925 -1.6203 -2.4644 0.4124 2.9400 -2.2629 0.2549 3.9519 0.0205 2.6497 -3.9455 -3.8622 4.4508 14.8288 -0.9397 2.0510 5.1953 0.0000 0.0000 0.0000 -81.2256 -10.5678 32.7405 9.4596 -15.8899 -1.3232 -0.0000 0.0000 -27.1038 13.8606 8.9565 2.1999 -7.1250 0.0000 -0.0000 -11.2878 38.9621 1.7046 0.0000 0.0000 0.0000 89.9597 -2.6400 19.5387 -15.7856 25.2291 -3.5541 0.0000 0.0000 15.0433 -7.9915 9.0918 -1.2708 7.1250 -0.0000 -0.0000 13.5373 -20.9019 8.0403
0.00 0.00 0.00 -182.1900 48.9144 -176.6670 0.0000 0.0000 0.0000 -17.9399 -13.5300 -13.0335 1.8117 8.4623 24.1273 0.8038 -21.3760 35.1432 4.1547 12.3635 37.0303 0.0000 0.0000 0.0000 17.9777 12.2016 -7.4442 -1.8565 -8.5606 24.4303 -0.1347 19.0981 -14.5781 -0.0491 -1.4300 3.9327 1.5323 0.5783 -1.1770 -1.9826 0.8725 3.4817 -2.8629 0.5572 4.3042 1.7497 3.8434 -4.1930 -6.7795 6.7137 15.9277 -1.9686 3.1369 5.7828 -0.0000 0.0000 0.0000 -80.3168 -4.7202 29.7286 13.4876 -21.9975 -2.6331 -0.0000 0.0000 -30.8773 14.0435 10.2856 2.5573 -7.1250 0.0000 -0.0000 -11.4025 40.3150 1.3369 -0.0000 0.0000 0.0000 88.1264 -0.2871 21.7678 -17.4504 27.4477 -4.2929 0.0000 0.0000 14.5646 -3.8156 9.9036 -0.6572 7.1250 -0.0000 -0.0000 16.3865 -20.2235 10.1290
0.00 0.00 0.00 -182.3190 17.5006 -177.1490 0.0000 0.0000 0.0000 -23.1689 -5.7655 -21.5445 3.1401 10.9185 32.0056 -0.8882 -19.3133 -3.7799 0.5599 -4.7930 -13.3191 0.0000 0.0000 0.0000 21.6745 -4.5847 -9.8729 -1.7087 -8.2309 23.4177 -2.0038 7.0517 -25.4584 -0.0626 1.6138 -4.4394 4.9177 0.5435 0.0874 -0.4097 0.7585 3.7788 -3.1510 0.6005 3.9235 3.2236 3.6428 -4.0350 -7.9139 6.7248 15.8381 -2.5625 3.2518 5.8081 0.0000 0.0000 0.0000 -78.3834 -0.5239 33.7154 16.3555 -26.0003 -3.8005 -0.0000 0.0000 -32.1695 12.6457 10.2968 2.2966 -7.1250 0.0000 -0.0000 -12.6065 40.2087 1.5167 0.0000 0.0000 0.0000 74.7610 -4.0025 18.0510 -16.5900 26.3142 -3.9039 0.0000 0.0000 15.9468 -5.8349 10.5812 -1.0751 7.1250 -0.0000 -0.0000 14.9308 -19.5153 9.4075
0.00 0.00 0.00 -181.8000 -7.4802 -178.4000 0.0000 0.0000 0.0000 -22.2996 -1.2879 -26.1601 2.0962 9.0636 25.9945 0.3121 -4.2047 -9.9468 0.1098 -2.1365 -5.8830 0.0000 0.0000 0.0000 25.2575 -12.5766 -5.1001 -0.9899 -6.3325 17.7523 -3.4178 -5.2349 -37.0265 -0.0167 -0.8341 2.2925 5.2427 1.0139 2.0683 -0.4773 1.2105 3.8275 -3.4271 0.6927 2.9187 0.0511 1.9618 -4.2855 -4.6237 2.7638 14.0137 -1.3050 0.8577 4.9757 0.0000 -0.0000 0.0000 -84.6015 4.8744 24.3417 10.4317 -17.4120 -1.6017 -0.0000 0.0000 -27.0600 13.9659 9.6495 2.3871 -7.1250 0.0000 -0.0000 -11.3366 39.6681 1.5123 0.0000 -0.0000 0.0000 78.4779 0.0967 20.2012 -16.9601 26.8052 -4.0693 0.0000 0.0000 13.4957 -7.3471 8.6874 -1.1157 7.1250 -0.0000 -0.0000 14.0243 -21.3163 8.2112
0.00 0.00 0.00 -180.0840 -30.9524 -179.2040 0.0000 0.0000 0.0000 -26.7318 8.3364 -15.2149 0.6532 5.1698 14.3934 -0.0805 -7.5301 -3.2291 0.0457 1.3794 3.7933 0.0000 0.0000 0.0000 20.2505 -2.6858 -1.8599 -7.7382 -15.9233 51.6141 -0.1060 -6.9584 7.0965 -0.4037 -4.0793 11.2998 0.4061 1.1480 -3.2936 -2.2893 1.5510 2.4201 -2.4863 0.7984 4.4214 -4.1711 -3.6789 -4.5952 5.4565 -6.1586 17.1543 1.9720 -3.1075 6.2404 -0.0000 0.0000 0.0000 -85.1073 3.5463 26.2987 12.1201 -19.9845 -2.1431 -0.0000 0.0000 -28.8656 12.8232 10.3110 2.3331 -7.1250 0.0000 -0.0000 -12.4574 40.2378 1.4890 -0.0000 0.0000 0.0000 88.8450 -2.2399 29.4170 -16.0602 25.6022 -3.6719 0.0000 0.0000 15.4436 -7.5285 8.8033 -1.1587 7.1250 -0.0000 -0.0000 13.8867 -21.1979 8.1642
